<svg width="16" height="16" viewBox="0 0 16 16" fill="none" xmlns="http://www.w3.org/2000/svg">
<g clip-path="url(#clip0_2069_9553)">
<path d="M14.5451 7.70417L8.29511 1.45417C8.21704 1.37657 8.11144 1.33301 8.00136 1.33301C7.89128 1.33301 7.78568 1.37657 7.70761 1.45417L1.45761 7.70417C1.38935 7.78388 1.35368 7.88641 1.35773 7.99128C1.36178 8.09614 1.40525 8.19562 1.47946 8.26982C1.55367 8.34403 1.65314 8.3875 1.75801 8.39155C1.86287 8.3956 1.9654 8.35993 2.04511 8.29167L7.99928 2.3375L13.9534 8.29584C14.0332 8.3641 14.1357 8.39977 14.2406 8.39572C14.3454 8.39167 14.4449 8.3482 14.5191 8.27399C14.5933 8.19978 14.6368 8.10031 14.6408 7.99544C14.6449 7.89058 14.6092 7.78805 14.5409 7.70834L14.5451 7.70417Z" fill="#686868"/>
<path d="M12.1667 13.8337H10.0833V9.66706H5.91667V13.8337H3.83333V8.00039L3 8.83372V13.8337C3 14.0547 3.0878 14.2667 3.24408 14.423C3.40036 14.5793 3.61232 14.6671 3.83333 14.6671H6.75V10.5004H9.25V14.6671H12.1667C12.3877 14.6671 12.5996 14.5793 12.7559 14.423C12.9122 14.2667 13 14.0547 13 13.8337V8.73372L12.1667 7.90039V13.8337Z" fill="#686868"/>
</g>
<defs>
<clipPath id="clip0_2069_9553">
<rect width="15" height="15" fill="white" transform="translate(0.5 0.5)"/>
</clipPath>
</defs>
</svg>
