<svg width="272" height="272" viewBox="0 0 272 272" fill="none" xmlns="http://www.w3.org/2000/svg">
<g clip-path="url(#clip0_3_116)">
<path d="M0 0C89.76 0 179.52 0 272 0C272 89.76 272 179.52 272 272C182.24 272 92.48 272 0 272C0 182.24 0 92.48 0 0Z" fill="white"/>
<path d="M99.5164 82.9945C99.6949 82.9945 99.8734 82.9945 100.058 82.9945C107.56 83.0115 114.175 85.808 119.638 90.9505C119.776 91.0717 119.914 91.1949 120.059 91.3224C123.312 94.3272 126.583 99.4739 127.076 103.913C125.943 104.646 124.795 105.294 123.584 105.887C123.418 105.97 123.253 106.053 123.083 106.136C122.73 106.312 122.379 106.484 122.027 106.659C121.111 107.111 120.197 107.566 119.281 108.023C119.105 108.11 118.926 108.199 118.746 108.288C117.4 108.96 116.068 109.648 114.744 110.358C112.84 111.374 110.9 112.324 108.966 113.282C108.83 113.348 108.694 113.416 108.554 113.486C108.182 113.671 107.806 113.856 107.432 114.043C106.916 114.277 106.916 114.277 106.676 114.538C105.148 114.502 103.917 113.752 102.585 113.063C102.341 112.94 102.096 112.815 101.845 112.687C100.205 111.85 98.5708 111 96.9494 110.129C96.654 109.971 96.3587 109.816 96.059 109.67C95.6255 109.438 95.6255 109.438 95.209 109.13C94.6778 108.788 94.3463 108.643 93.713 108.588C92.6675 108.947 91.7432 109.47 90.7869 110.02C89.9943 110.467 89.1783 110.87 88.3665 111.28C88.0223 111.457 87.678 111.631 87.3359 111.807C86.6007 112.186 85.8654 112.562 85.1302 112.94C83.3579 113.847 81.5878 114.755 79.8198 115.669C79.059 116.062 78.2983 116.455 77.5375 116.846C77.1763 117.033 76.8151 117.22 76.4538 117.407C75.9502 117.666 75.4465 117.927 74.9429 118.187C74.7963 118.263 74.6497 118.34 74.4988 118.418C73.6934 118.831 72.9072 119.162 72.0381 119.426C69.8684 116.162 70.3784 110.473 71.0032 106.809C71.1711 105.974 71.3772 105.156 71.6131 104.338C71.6556 104.187 71.6959 104.036 71.7405 103.881C73.6275 97.3872 78.1262 90.7763 84.0847 87.3912C87.0129 85.8017 90.0262 84.278 93.288 83.513C93.4453 83.4748 93.6025 83.4365 93.764 83.3983C95.668 82.9903 97.5784 82.9945 99.5164 82.9945Z" fill="#45B7FA"/>
<path d="M110.499 144.039C110.918 144.039 111.336 144.037 111.753 144.037C112.626 144.035 113.498 144.035 114.369 144.035C115.246 144.035 116.122 144.035 116.997 144.031C122.406 144.014 127.784 144.097 133.181 144.466C133.672 144.5 134.163 144.534 134.654 144.566C137.051 144.726 139.448 144.902 141.843 145.085C142.026 145.098 142.206 145.112 142.393 145.127C148.696 145.608 154.975 146.188 161.246 146.991C161.754 147.055 162.262 147.121 162.772 147.184C165.475 147.529 168.176 147.877 170.879 148.23C171.499 148.311 172.12 148.391 172.743 148.47C178.253 149.186 183.739 150.008 189.222 150.926C190.495 151.139 191.768 151.345 193.041 151.551C193.423 151.613 193.806 151.674 194.186 151.736C194.738 151.825 195.291 151.917 195.843 152.006C196.411 152.097 196.976 152.189 197.543 152.282C197.709 152.308 197.875 152.335 198.045 152.363C198.829 152.49 199.611 152.624 200.387 152.788C200.387 152.928 200.387 153.068 200.387 153.213C200.878 153.143 201.368 153.073 201.874 153C201.874 153.141 201.874 153.281 201.874 153.425C201.375 153.4 200.875 153.372 200.374 153.345C200.096 153.33 199.817 153.315 199.53 153.3C198.674 153.241 197.828 153.128 196.978 153.009C195.268 152.777 193.555 152.622 191.834 152.495C191.581 152.476 191.581 152.476 191.324 152.456C186.343 152.085 181.353 151.847 176.368 151.589C176.196 151.579 176.026 151.57 175.849 151.562C175.04 151.519 174.232 151.479 173.425 151.436C173.129 151.422 172.834 151.407 172.541 151.392C172.29 151.379 172.039 151.366 171.782 151.354C171.236 151.324 170.692 151.288 170.148 151.247C168.244 151.109 166.355 151.056 164.444 151.06C164.136 151.06 163.83 151.06 163.522 151.058C162.7 151.058 161.875 151.058 161.051 151.058C160.184 151.06 159.317 151.058 158.45 151.058C156.996 151.058 155.543 151.058 154.089 151.06C152.415 151.06 150.738 151.06 149.062 151.06C147.617 151.058 146.169 151.058 144.724 151.058C143.864 151.058 143.003 151.058 142.143 151.058C141.333 151.058 140.525 151.058 139.716 151.06C139.423 151.06 139.127 151.06 138.832 151.06C137.302 151.056 135.816 151.101 134.299 151.3C133.728 151.339 133.156 151.362 132.584 151.383C132.255 151.398 131.926 151.413 131.596 151.426C131.424 151.434 131.252 151.441 131.076 151.449C127.134 151.623 123.228 151.968 119.309 152.42C118.347 152.531 117.382 152.633 116.417 152.726C112.79 153.088 109.214 153.68 105.629 154.331C104.864 154.471 104.097 154.601 103.329 154.732C93.7478 156.405 83.4309 159.439 75.4367 165.113C75.2284 165.262 75.0181 165.41 74.8034 165.563C69.9712 169.085 66.6477 173.335 65.0242 179.138C64.9838 179.276 64.9413 179.412 64.8967 179.554C64.4526 181.193 64.5546 182.889 64.5737 184.569C64.5758 184.888 64.5779 185.207 64.5801 185.526C64.5843 186.301 64.5907 187.075 64.5992 187.85C64.5291 187.71 64.4589 187.57 64.3867 187.425C64.1763 187.425 63.9659 187.425 63.7492 187.425C62.7802 186.348 62.1576 184.937 61.5328 183.643C61.3097 183.19 61.0802 182.74 60.8422 182.296C59.6904 180.126 58.9212 177.876 58.2242 175.525C58.1477 175.268 58.0691 175.011 57.9904 174.748C57.0236 170.863 57.0937 166.269 58.6492 162.563C58.7448 162.333 58.8404 162.104 58.9382 161.868C60.7721 157.871 63.9404 155.091 67.5742 152.788C67.8101 152.637 68.0459 152.486 68.2903 152.331C80.2477 145.098 96.8524 144.046 110.499 144.039Z" fill="#4E5354"/>
<path d="M142.248 100.633C142.499 100.773 142.75 100.913 143 101.058C143.281 101.213 143.566 101.37 143.848 101.525C143.991 101.604 144.135 101.685 144.284 101.765C144.953 102.131 145.635 102.471 146.32 102.811C146.458 102.879 146.596 102.947 146.738 103.019C147.195 103.247 147.654 103.474 148.113 103.699C151.037 105.151 153.942 106.632 156.826 108.162C159.002 109.316 161.182 110.459 163.388 111.553C165.95 112.824 168.505 114.11 171.05 115.414C171.382 115.584 171.713 115.754 172.045 115.924C172.534 116.173 173.022 116.424 173.509 116.672C173.658 116.749 173.804 116.823 173.957 116.9C175.43 117.66 175.43 117.66 175.951 118.149C176.055 118.657 176.055 118.657 176.053 119.267C176.055 119.615 176.055 119.615 176.057 119.968C176.053 120.223 176.05 120.476 176.046 120.74C176.046 121.005 176.046 121.273 176.046 121.549C176.046 122.282 176.042 123.015 176.036 123.751C176.031 124.516 176.031 125.283 176.029 126.05C176.027 127.501 176.021 128.953 176.012 130.404C176.002 132.057 175.997 133.711 175.993 135.364C175.985 138.764 175.97 142.162 175.951 145.562C175.411 145.538 174.869 145.511 174.329 145.483C174.102 145.472 174.102 145.472 173.87 145.462C171.692 145.343 171.692 145.343 171.063 144.712C171.04 144.404 171.031 144.093 171.029 143.783C171.025 143.483 171.025 143.483 171.023 143.175C171.021 142.954 171.021 142.731 171.018 142.504C171.016 142.272 171.014 142.038 171.012 141.8C171.006 141.029 171.001 140.258 170.995 139.486C170.991 138.953 170.987 138.42 170.982 137.886C170.972 136.622 170.961 135.36 170.953 134.097C170.942 132.518 170.929 130.94 170.914 129.363C170.893 126.545 170.87 123.729 170.851 120.912C170.655 120.85 170.46 120.788 170.258 120.723C169.48 120.455 168.781 120.087 168.06 119.69C167.776 119.537 167.491 119.382 167.206 119.227C167.066 119.152 166.928 119.076 166.783 118.999C166.25 118.714 165.708 118.445 165.166 118.177C164.057 117.629 162.965 117.055 161.872 116.477C159.815 115.389 157.735 114.348 155.65 113.317C152.038 111.526 148.413 109.721 144.913 107.724C143.952 107.178 142.992 106.634 142.016 106.117C141.725 105.962 141.725 105.962 141.43 105.803C140.656 105.531 140.106 105.701 139.367 106.028C139.218 106.109 139.067 106.19 138.912 106.273C138.744 106.364 138.578 106.453 138.404 106.545C138.23 106.64 138.053 106.736 137.873 106.834C137.507 107.029 137.142 107.227 136.776 107.422C136.604 107.514 136.43 107.607 136.253 107.703C135.735 107.977 135.212 108.238 134.685 108.495C133.784 108.937 132.915 109.432 132.042 109.93C129.951 111.115 127.809 112.178 125.637 113.206C125.422 113.308 125.208 113.408 124.987 113.515C124.568 113.712 124.147 113.91 123.727 114.105C122.558 114.658 121.451 115.261 120.35 115.937C119.621 116.375 118.871 116.753 118.11 117.127C117.97 117.197 117.83 117.267 117.685 117.34C117.016 117.671 116.344 117.986 115.656 118.272C115.088 118.521 114.619 118.772 114.113 119.12C113.348 119.615 112.662 119.86 111.776 120.062C111.776 120.272 111.776 120.482 111.776 120.699C112.706 120.582 113.422 120.353 114.255 119.93C114.483 119.815 114.71 119.7 114.944 119.584C115.182 119.46 115.42 119.339 115.666 119.212C115.913 119.086 116.162 118.961 116.417 118.833C117.919 118.071 119.411 117.289 120.894 116.49C122.192 115.795 123.523 115.17 124.861 114.558C125.805 114.122 126.636 113.627 127.501 113.049C127.86 112.894 128.221 112.739 128.582 112.586C129.243 112.303 129.885 111.98 130.527 111.657C130.671 111.583 130.816 111.511 130.966 111.436C132.118 110.854 133.261 110.257 134.403 109.656C134.917 109.386 135.431 109.116 135.945 108.848C136.296 108.663 136.647 108.476 136.997 108.291C137.511 108.017 138.028 107.747 138.546 107.477C138.78 107.352 138.78 107.352 139.018 107.222C140.095 106.668 140.095 106.668 140.82 106.7C141.366 106.908 141.883 107.135 142.405 107.399C142.718 107.556 142.718 107.556 143.036 107.715C143.255 107.828 143.476 107.941 143.704 108.055C143.931 108.172 144.158 108.287 144.394 108.406C145.858 109.148 147.312 109.906 148.759 110.68C150.431 111.57 152.127 112.407 153.825 113.247C155.765 114.207 157.686 115.198 159.601 116.207C160.961 116.919 162.329 117.609 163.704 118.292C163.878 118.379 164.051 118.464 164.229 118.551C165.096 118.982 165.965 119.411 166.834 119.839C167.155 119.998 167.478 120.157 167.799 120.315C167.948 120.389 168.097 120.461 168.25 120.536C169.535 121.175 169.535 121.175 170.001 121.762C170.079 122.204 170.079 122.204 170.077 122.718C170.077 123.011 170.077 123.011 170.079 123.311C170.077 123.525 170.075 123.74 170.073 123.961C170.073 124.186 170.073 124.414 170.073 124.645C170.073 125.395 170.066 126.143 170.062 126.891C170.062 127.41 170.06 127.928 170.06 128.447C170.058 129.813 170.052 131.178 170.043 132.544C170.037 133.936 170.035 135.33 170.03 136.722C170.024 139.457 170.013 142.191 170.001 144.924C168.991 144.739 168.991 144.739 168.513 144.499C168.513 144.234 168.515 143.968 168.515 143.692C168.526 141.182 168.526 138.67 168.517 136.161C168.513 134.869 168.513 133.579 168.519 132.287C168.526 131.042 168.524 129.796 168.515 128.551C168.513 128.075 168.515 127.599 168.519 127.125C168.526 126.458 168.519 125.795 168.513 125.128C168.517 124.932 168.522 124.735 168.526 124.533C168.513 123.982 168.485 123.555 168.301 123.037C167.788 122.55 167.238 122.265 166.601 121.974C166.399 121.859 166.199 121.747 165.993 121.628C165.81 121.528 165.627 121.428 165.438 121.326C165.228 121.213 165.02 121.099 164.803 120.982C164.59 120.867 164.376 120.752 164.157 120.633C163.949 120.521 163.742 120.408 163.528 120.291C161.887 119.405 160.223 118.566 158.553 117.737C157.314 117.123 156.075 116.504 154.839 115.888C154.522 115.729 154.205 115.572 153.887 115.414C153.419 115.181 152.95 114.947 152.482 114.713C152.342 114.645 152.202 114.575 152.057 114.503C151.148 114.048 150.268 113.557 149.388 113.049C148.989 112.837 148.587 112.624 148.185 112.416C147.964 112.301 147.745 112.186 147.518 112.067C146.581 111.583 145.644 111.101 144.707 110.616C144.173 110.34 143.644 110.057 143.117 109.768C142.985 109.698 142.852 109.626 142.713 109.554C142.378 109.373 142.044 109.19 141.708 109.007C140.646 108.646 139.86 108.908 138.85 109.337C138.58 109.475 138.313 109.615 138.045 109.755C137.9 109.832 137.754 109.906 137.603 109.983C137.137 110.223 136.676 110.467 136.213 110.712C135.984 110.833 135.984 110.833 135.752 110.956C135.14 111.279 134.53 111.602 133.92 111.927C132.762 112.543 131.589 113.132 130.412 113.714C129.49 114.175 128.582 114.664 127.673 115.149C126.283 115.888 124.878 116.583 123.45 117.246C122.248 117.807 121.1 118.389 119.978 119.097C118.828 119.779 117.613 120.346 116.414 120.933C115.858 121.207 115.305 121.485 114.751 121.762C115.456 122.335 116.204 122.726 117.016 123.13C117.292 123.268 117.568 123.409 117.845 123.547C118.278 123.766 118.709 123.982 119.145 124.197C119.566 124.405 119.984 124.618 120.403 124.83C120.779 125.017 120.779 125.017 121.162 125.208C121.761 125.587 121.965 125.778 122.188 126.437C122.328 126.437 122.469 126.437 122.613 126.437C122.613 131.205 122.613 135.974 122.613 140.887C117.938 140.674 117.938 140.674 117.726 140.462C117.7 140.12 117.689 139.777 117.685 139.433C117.679 139.106 117.679 139.106 117.675 138.77C117.67 138.411 117.67 138.411 117.666 138.048C117.662 137.803 117.658 137.561 117.653 137.308C117.641 136.528 117.63 135.746 117.619 134.964C117.604 133.938 117.59 132.912 117.573 131.885C117.568 131.528 117.568 131.528 117.564 131.165C117.558 130.833 117.558 130.833 117.553 130.495C117.549 130.302 117.547 130.107 117.545 129.907C117.532 129.38 117.532 129.38 117.301 128.774C116.831 128.553 116.831 128.553 116.238 128.349C115.717 128.096 115.199 127.841 114.685 127.58C114.374 127.425 114.066 127.27 113.758 127.115C113.603 127.036 113.448 126.957 113.286 126.877C112.634 126.547 111.977 126.22 111.323 125.893C111.191 125.827 111.062 125.761 110.926 125.693C110.05 125.255 109.175 124.82 108.297 124.386C107.732 124.106 107.164 123.823 106.599 123.542C106.316 123.402 106.036 123.262 105.753 123.124C104.268 122.391 102.814 121.636 101.401 120.767C100.726 120.359 100.026 120.009 99.3166 119.664C99.0255 119.522 98.7323 119.377 98.4411 119.235C98.2945 119.163 98.1458 119.091 97.9928 119.016C97.5253 118.78 97.062 118.538 96.6009 118.294C96.4479 118.213 96.2949 118.134 96.1398 118.051C95.8465 117.898 95.5554 117.745 95.2664 117.586C94.6544 117.269 94.2358 117.08 93.5409 117.129C92.9799 117.335 92.5188 117.624 92.013 117.937C91.6666 118.085 91.3203 118.234 90.9718 118.379C88.3623 119.522 85.8611 120.958 83.343 122.289C81.0353 123.508 78.7254 124.713 76.3496 125.793C75.4146 126.224 74.554 126.711 73.687 127.265C73.2556 127.535 72.8158 127.746 72.344 127.939C72.0253 128.069 71.7108 128.207 71.4005 128.349C71.0223 128.511 71.0223 128.511 70.6355 128.676C70.2318 128.893 70.2318 128.893 69.913 129.199C69.7643 129.877 69.7239 130.342 69.7451 131.018C69.7451 131.203 69.743 131.386 69.743 131.575C69.7451 131.972 69.7473 132.37 69.7558 132.767C69.7664 133.396 69.7664 134.023 69.7664 134.652C69.7664 135.986 69.7791 137.321 69.794 138.655C69.8068 140.202 69.8174 141.749 69.8174 143.296C69.8195 143.915 69.828 144.535 69.8386 145.154C69.8408 145.534 69.8408 145.914 69.8408 146.293C69.845 146.465 69.8514 146.639 69.8556 146.815C69.8514 147.298 69.8514 147.298 69.7005 148.112C69.0843 148.632 69.0843 148.632 68.4255 148.962C68.2598 149.059 68.0961 149.155 67.9261 149.255C67.0379 149.744 66.1475 150.218 65.238 150.662C64.813 150.237 64.813 150.237 64.7599 149.81C64.7599 149.633 64.762 149.457 64.762 149.274C64.7599 149.072 64.7599 148.87 64.7599 148.66C64.762 148.326 64.762 148.326 64.7641 147.984C64.7641 147.75 64.7641 147.517 64.7641 147.274C64.7641 146.497 64.7684 145.721 64.7705 144.943C64.7726 144.406 64.7726 143.868 64.7726 143.33C64.7748 142.058 64.7769 140.785 64.7811 139.512C64.7875 138.063 64.7896 136.615 64.7918 135.166C64.796 132.185 64.8024 129.206 64.813 126.224C64.9511 126.152 65.0893 126.082 65.2316 126.007C65.867 125.676 66.5024 125.344 67.1378 125.013C67.4629 124.843 67.4629 124.843 67.7965 124.671C69.0673 124.008 70.3338 123.341 71.6003 122.665C73.5361 121.636 75.4996 120.663 77.4653 119.69C80.0089 118.428 82.5291 117.119 85.0515 115.81C85.8696 115.385 86.6878 114.962 87.5059 114.539C88.0329 114.267 88.5599 113.995 89.0848 113.723C89.4545 113.532 89.8221 113.342 90.1919 113.151C90.415 113.036 90.6403 112.92 90.8698 112.801C91.0653 112.701 91.2608 112.599 91.4626 112.495C91.8409 112.293 92.2128 112.076 92.5783 111.849C93.237 111.468 93.5961 111.46 94.3505 111.562C94.92 111.821 95.4428 112.089 95.9846 112.399C96.3055 112.577 96.6264 112.754 96.9494 112.93C97.1151 113.019 97.2809 113.111 97.453 113.204C98.2818 113.644 99.1296 114.037 99.9818 114.43C101.501 115.136 102.982 115.89 104.44 116.717C105.503 117.314 105.503 117.314 106.676 117.299C107.309 117.029 107.906 116.704 108.507 116.371C108.871 116.175 109.234 115.977 109.595 115.782C109.874 115.631 109.874 115.631 110.156 115.476C111.025 115.006 111.897 114.545 112.772 114.086C112.938 113.997 113.106 113.91 113.278 113.818C115.023 112.903 116.784 112.025 118.548 111.154C120.322 110.274 122.082 109.375 123.835 108.455C125.701 107.475 127.579 106.523 129.466 105.586C131.17 104.738 132.868 103.884 134.553 102.996C134.711 102.913 134.87 102.83 135.032 102.743C135.837 102.32 136.632 101.884 137.422 101.438C137.667 101.302 137.667 101.302 137.915 101.162C138.221 100.992 138.525 100.818 138.829 100.641C140.083 99.9465 140.926 100.025 142.248 100.633Z" fill="#0B8BCA"/>
<path d="M141.923 153.598C142.187 153.598 142.448 153.598 142.718 153.598C150.134 153.606 157.576 153.738 164.967 154.382C165.19 154.401 165.19 154.401 165.417 154.42C167.785 154.628 167.785 154.628 168.724 155.126C168.609 155.128 168.494 155.128 168.375 155.13C165.519 155.17 162.663 155.213 159.805 155.257C158.424 155.281 157.043 155.302 155.662 155.321C149.257 155.408 142.886 155.587 136.503 156.112C135.434 156.201 134.365 156.275 133.296 156.352C128.183 156.715 123.104 157.193 118.036 157.958C117.231 158.079 116.426 158.194 115.618 158.307C108.382 159.32 101.062 160.574 94.0918 162.805C93.4246 163.011 92.7531 163.198 92.0773 163.381C89.5082 164.085 86.9816 164.852 84.4826 165.776C84.2552 165.861 84.0278 165.944 83.7919 166.031C82.3597 166.575 80.9784 167.191 79.6014 167.865C79.4208 167.939 79.2381 168.012 79.0489 168.088C78.9087 168.018 78.7706 167.948 78.6239 167.876C90.2349 155.653 115.699 154.656 131.324 153.851C131.517 153.84 131.711 153.829 131.91 153.819C135.249 153.644 138.581 153.596 141.923 153.598Z" fill="#0B8BCA"/>
<path d="M93.2875 118.15C94.2523 118.244 94.9875 118.524 95.846 118.96C96.0904 119.083 96.3348 119.204 96.5855 119.332C96.8448 119.463 97.104 119.597 97.3654 119.731C97.6331 119.867 97.9009 120.003 98.1708 120.139C99.8474 120.989 101.516 121.856 103.177 122.738C104.34 123.356 105.515 123.949 106.694 124.531C107.863 125.114 109.013 125.726 110.162 126.346C110.982 126.782 111.807 127.194 112.651 127.583C112.833 127.668 113.014 127.751 113.201 127.838C113.552 127.997 113.902 128.157 114.255 128.312C114.414 128.384 114.576 128.458 114.739 128.533C114.88 128.594 115.022 128.658 115.167 128.722C115.819 129.121 116.201 129.425 116.663 130.05C116.809 130.86 116.786 131.657 116.767 132.479C116.765 132.83 116.765 132.83 116.762 133.189C116.756 133.935 116.743 134.683 116.728 135.428C116.724 135.936 116.718 136.442 116.714 136.95C116.703 138.191 116.686 139.434 116.663 140.675C116.242 140.675 115.821 140.675 115.388 140.675C114.871 139.668 114.899 138.729 114.897 137.626C114.892 137.235 114.886 136.844 114.882 136.453C114.875 135.839 114.869 135.227 114.865 134.612C114.861 134.017 114.852 133.425 114.844 132.832C114.844 132.555 114.844 132.555 114.844 132.273C114.841 132.103 114.837 131.931 114.835 131.754C114.835 131.606 114.833 131.455 114.833 131.3C114.725 130.775 114.525 130.596 114.113 130.263C113.613 129.991 113.118 129.736 112.606 129.489C112.298 129.338 111.99 129.187 111.682 129.034C111.522 128.958 111.363 128.879 111.197 128.798C110.413 128.416 109.633 128.027 108.853 127.636C108.541 127.481 108.231 127.326 107.918 127.171C107.687 127.056 107.687 127.056 107.451 126.937C107.134 126.78 106.817 126.622 106.501 126.465C106.031 126.231 105.562 125.998 105.094 125.764C104.954 125.694 104.814 125.626 104.671 125.554C104.012 125.224 103.366 124.886 102.729 124.519C102.038 124.121 101.341 123.758 100.627 123.403C100.504 123.341 100.379 123.28 100.249 123.214C99.8538 123.018 99.4606 122.823 99.0654 122.625C98.6744 122.432 98.2813 122.236 97.8903 122.041C97.512 121.852 97.1338 121.665 96.7555 121.48C96.3071 121.255 95.863 121.023 95.4231 120.787C95.2361 120.687 95.0513 120.587 94.86 120.485C94.7006 120.396 94.5413 120.309 94.3776 120.22C93.8081 120.022 93.517 120.103 92.956 120.301C92.565 120.496 92.1804 120.7 91.8 120.913C91.5344 121.053 91.2709 121.193 91.0053 121.331C90.5526 121.569 90.1 121.809 89.6495 122.054C88.3448 122.755 87.0145 123.395 85.663 124.004C84.6579 124.468 83.6974 124.988 82.7411 125.545C81.1708 126.455 79.5621 127.268 77.9344 128.072C77.6581 128.208 77.384 128.344 77.1078 128.482C76.8379 128.616 76.568 128.75 76.2981 128.883C76.1685 128.947 76.0389 129.013 75.905 129.079C75.3185 129.37 74.7299 129.659 74.1391 129.944C73.9458 130.037 73.7524 130.131 73.5548 130.226C73.389 130.307 73.2211 130.386 73.0511 130.469C72.6389 130.662 72.6389 130.662 72.4625 131.113C72.437 131.618 72.4221 132.118 72.4179 132.623C72.4158 132.779 72.4136 132.936 72.4115 133.095C72.4051 133.609 72.4009 134.126 72.3945 134.64C72.3903 134.997 72.386 135.354 72.3818 135.711C72.3711 136.65 72.3605 137.59 72.3499 138.529C72.3393 139.489 72.3265 140.448 72.3159 141.406C72.2925 143.287 72.2713 145.169 72.25 147.05C71.6189 147.26 71.6189 147.26 70.975 147.475C70.72 146.712 70.7243 146.013 70.7179 145.218C70.7158 145.053 70.7136 144.889 70.7115 144.719C70.7051 144.175 70.7009 143.631 70.6966 143.087C70.6945 142.9 70.6945 142.715 70.6924 142.524C70.686 141.54 70.6796 140.556 70.6754 139.572C70.6733 138.758 70.6648 137.944 70.6541 137.131C70.6414 136.147 70.635 135.163 70.6329 134.181C70.6308 133.805 70.6265 133.431 70.6223 133.057C70.6138 132.532 70.6138 132.009 70.6138 131.484C70.6095 131.329 70.6053 131.174 70.601 131.015C70.6074 130.581 70.6074 130.581 70.7625 129.838C71.3681 129.332 71.3681 129.332 72.0375 128.988C72.2521 128.875 72.4646 128.762 72.6856 128.645C72.9151 128.535 73.1425 128.424 73.3784 128.31C74.5174 127.753 75.6373 127.171 76.7529 126.569C78.0236 125.889 79.3093 125.254 80.6183 124.644C82.1058 123.949 83.5635 123.212 85.0128 122.436C86.9869 121.386 88.9908 120.398 90.9946 119.406C91.1986 119.306 91.1986 119.306 91.4069 119.202C91.7809 119.017 92.1549 118.83 92.5289 118.645C93.0474 118.411 93.0474 118.411 93.2875 118.15Z" fill="#0B8BCA"/>
<path d="M210.133 175.146C211.348 176.081 212.204 177.412 212.5 178.925C212.683 180.446 212.391 181.836 211.65 183.175C210.449 184.556 209.223 185.298 207.4 185.512C205.211 185.659 203.35 185.011 201.662 183.6C200.615 182.365 200.326 181.062 200.4 179.484C200.615 177.752 201.239 176.43 202.593 175.312C204.758 173.806 207.901 173.682 210.133 175.146Z" fill="#0B8BCA"/>
<path d="M161.69 175.169C162.867 176.112 163.719 177.222 164.051 178.713C164.246 180.511 164.047 181.897 162.988 183.388C161.805 184.776 160.466 185.354 158.677 185.571C156.63 185.662 154.928 184.961 153.426 183.601C152.423 182.626 151.962 181.3 151.924 179.91C152.07 178.176 152.625 176.605 153.97 175.452C156.099 173.813 159.452 173.605 161.69 175.169Z" fill="#0B8BCA"/>
<path d="M92.8633 174.791C94.302 175.839 95.3305 177.152 95.6258 178.924C95.8043 180.743 95.5578 182.084 94.3891 183.533C93.2097 184.825 91.99 185.384 90.2793 185.561C88.216 185.644 86.516 184.985 85.0008 183.599C83.7513 182.252 83.6302 181.039 83.6578 179.247C83.7768 177.913 84.2231 177.005 85.0795 175.99C87.2236 174.203 90.2517 173.389 92.8633 174.791Z" fill="#0B8BCA"/>
<path d="M97.9625 174.25C100.402 173.993 100.402 173.993 101.116 174.56C101.396 175.013 101.596 175.453 101.787 175.95C101.934 176.269 102.079 176.588 102.225 176.906C102.293 177.064 102.359 177.223 102.429 177.384C102.64 177.869 102.873 178.336 103.116 178.806C103.487 179.563 103.487 179.563 103.487 179.988C103.628 179.988 103.768 179.988 103.912 179.988C103.912 180.128 103.912 180.268 103.912 180.413C104.053 180.413 104.193 180.413 104.337 180.413C104.359 180.272 104.378 180.13 104.399 179.985C104.59 179.176 104.915 178.445 105.253 177.69C105.321 177.54 105.387 177.389 105.455 177.234C105.906 176.224 106.377 175.23 106.887 174.25C107.338 174.244 107.791 174.239 108.243 174.237C108.494 174.235 108.745 174.231 109.004 174.229C109.65 174.25 109.65 174.25 110.075 174.463C110.075 178.039 110.075 181.615 110.075 185.3C109.374 185.3 108.672 185.3 107.95 185.3C107.389 184.739 107.461 184.454 107.438 183.672C107.425 183.313 107.425 183.313 107.412 182.95C107.406 182.699 107.4 182.45 107.393 182.193C107.38 181.815 107.38 181.815 107.368 181.43C107.346 180.808 107.329 180.185 107.312 179.563C107.172 179.563 107.032 179.563 106.887 179.563C106.858 179.771 106.858 179.771 106.828 179.983C106.626 180.831 106.286 181.586 105.931 182.378C105.863 182.533 105.795 182.688 105.725 182.85C105.217 183.995 105.217 183.995 104.975 184.238C104.565 184.303 104.565 184.303 104.059 184.331C103.893 184.344 103.728 184.357 103.555 184.369C102.931 184.204 102.739 183.904 102.416 183.36C102.038 182.625 101.722 181.87 101.416 181.103C101.348 180.94 101.282 180.778 101.212 180.61C100.725 179.41 100.725 179.41 100.725 178.925C100.585 178.925 100.444 178.925 100.3 178.925C100.3 181.029 100.3 183.133 100.3 185.3C98.175 185.3 98.175 185.3 97.75 185.088C97.7436 183.613 97.7415 182.138 97.7394 180.661C97.7372 180.16 97.7351 179.658 97.733 179.157C97.7309 178.436 97.7309 177.714 97.7287 176.993C97.7287 176.768 97.7266 176.543 97.7266 176.311C97.7266 176.103 97.7266 175.895 97.7266 175.68C97.7245 175.495 97.7245 175.31 97.7245 175.121C97.75 174.675 97.75 174.675 97.9625 174.25Z" fill="#0B8BCA"/>
<path d="M140.675 174.25C141.521 174.235 142.369 174.222 143.214 174.216C143.641 174.21 144.071 174.201 144.498 174.195C146.31 174.18 147.702 174.197 149.149 175.393C150.214 176.706 150.193 178.145 150.025 179.775C149.591 180.657 149.016 181.216 148.325 181.9C148.478 182.134 148.478 182.134 148.635 182.374C148.769 182.582 148.903 182.788 149.043 183.003C149.175 183.207 149.309 183.411 149.445 183.623C149.774 184.174 150.021 184.699 150.237 185.3C149.224 185.413 148.272 185.466 147.262 185.3C146.449 184.611 146.121 183.698 145.709 182.737C145.388 182.278 145.388 182.278 144.887 182.261C144.402 182.259 143.92 182.291 143.437 182.325C143.437 183.307 143.437 184.288 143.437 185.3C141.487 185.342 141.487 185.342 140.887 185.3C140.462 184.875 140.462 184.875 140.409 184.439C140.409 184.261 140.411 184.082 140.411 183.897C140.409 183.693 140.409 183.492 140.409 183.283C140.409 183.062 140.411 182.843 140.414 182.618C140.414 182.393 140.414 182.168 140.414 181.936C140.414 181.46 140.416 180.984 140.418 180.508C140.422 179.777 140.422 179.048 140.422 178.317C140.424 177.856 140.426 177.395 140.426 176.932C140.426 176.713 140.426 176.494 140.428 176.267C140.428 176.065 140.431 175.861 140.431 175.652C140.433 175.474 140.433 175.295 140.435 175.111C140.462 174.675 140.462 174.675 140.675 174.25Z" fill="#0B8BCA"/>
<path d="M214.837 174.25C215.696 173.986 216.319 173.965 217.175 174.25C218.301 175.257 219.107 176.613 219.937 177.862C220.229 178.283 220.522 178.704 220.813 179.125C220.919 179.284 221.025 179.443 221.134 179.607C221.436 180.045 221.436 180.045 222.062 180.412C222.133 178.379 222.203 176.345 222.275 174.25C223.046 174.25 223.818 174.25 224.612 174.25C224.825 174.462 224.825 174.462 224.85 174.9C224.85 175.091 224.85 175.283 224.848 175.482C224.848 175.699 224.848 175.916 224.848 176.139C224.848 176.375 224.846 176.611 224.846 176.853C224.846 177.093 224.844 177.335 224.844 177.582C224.844 178.353 224.842 179.123 224.838 179.894C224.838 180.415 224.836 180.937 224.836 181.458C224.833 182.739 224.829 184.019 224.825 185.3C224.447 185.311 224.071 185.319 223.692 185.325C223.482 185.33 223.272 185.336 223.055 185.34C222.487 185.3 222.487 185.3 221.905 184.89C221.746 184.673 221.589 184.458 221.425 184.237C221.181 183.934 220.936 183.63 220.692 183.326C220.43 182.99 220.171 182.65 219.912 182.312C219.778 182.142 219.646 181.97 219.512 181.796C219.158 181.335 218.803 180.874 218.45 180.412C218.271 180.187 218.271 180.187 218.089 179.96C217.812 179.562 217.812 179.562 217.812 179.137C217.672 179.137 217.532 179.137 217.387 179.137C217.387 181.171 217.387 183.205 217.387 185.3C216.546 185.3 215.704 185.3 214.837 185.3C214.582 184.788 214.597 184.469 214.597 183.897C214.597 183.693 214.595 183.492 214.595 183.283C214.595 183.062 214.597 182.843 214.597 182.618C214.597 182.393 214.597 182.168 214.595 181.936C214.595 181.46 214.597 180.984 214.597 180.508C214.597 179.777 214.597 179.048 214.595 178.317C214.595 177.856 214.597 177.395 214.597 176.932C214.595 176.602 214.595 176.602 214.595 176.267C214.595 176.065 214.597 175.861 214.597 175.652C214.597 175.474 214.597 175.295 214.597 175.111C214.625 174.675 214.625 174.675 214.837 174.25Z" fill="#0B8BCA"/>
<path d="M128.988 174.25C129.94 174.231 130.892 174.22 131.844 174.21C132.111 174.205 132.379 174.199 132.655 174.195C136.032 174.167 136.032 174.167 137.192 175.189C138.057 176.173 138.161 176.976 138.178 178.247C138.185 178.504 138.189 178.759 138.195 179.023C138.093 180.113 137.757 180.799 136.956 181.541C135.877 182.27 134.702 182.185 133.446 182.242C132.638 182.206 132.638 182.206 131.963 182.537C131.914 183.001 131.875 183.466 131.844 183.931C131.824 184.186 131.807 184.441 131.788 184.703C131.776 184.9 131.763 185.098 131.75 185.3C131.329 185.306 130.909 185.311 130.488 185.313C130.254 185.315 130.02 185.319 129.778 185.321C129.2 185.3 129.2 185.3 128.988 185.087C128.968 184.747 128.962 184.407 128.964 184.067C128.964 183.851 128.964 183.634 128.964 183.411C128.964 183.175 128.966 182.939 128.966 182.697C128.966 182.457 128.968 182.214 128.968 181.968C128.968 181.197 128.971 180.427 128.975 179.656C128.975 179.135 128.977 178.613 128.977 178.092C128.979 176.811 128.983 175.531 128.988 174.25Z" fill="#0B8BCA"/>
<path d="M71.1875 174.25C71.5679 174.244 71.9482 174.239 72.3307 174.237C72.5411 174.235 72.7536 174.231 72.9725 174.229C73.525 174.25 73.525 174.25 73.95 174.463C73.9564 174.584 73.9606 174.705 73.967 174.83C73.9904 175.376 74.0159 175.922 74.0435 176.469C74.052 176.66 74.0605 176.849 74.069 177.047C74.0817 177.319 74.0817 177.319 74.0945 177.597C74.103 177.765 74.1115 177.933 74.1179 178.105C74.1221 178.502 74.1221 178.502 74.375 178.713C74.6916 178.732 75.0082 178.736 75.3249 178.734C75.5841 178.732 75.5841 178.732 75.8476 178.732C76.0665 178.73 76.2875 178.727 76.5127 178.725C77.5582 178.719 77.5582 178.719 78.625 178.713C78.625 177.24 78.625 175.767 78.625 174.25C80.597 174.229 80.597 174.229 81.175 174.25C81.3875 174.463 81.3875 174.463 81.413 174.9C81.413 175.092 81.413 175.283 81.4109 175.483C81.4109 175.699 81.4109 175.916 81.4109 176.139C81.4109 176.375 81.4087 176.611 81.4087 176.853C81.4087 177.093 81.4066 177.336 81.4066 177.582C81.4066 178.353 81.4045 179.123 81.4002 179.894C81.4002 180.415 81.3981 180.937 81.3981 181.458C81.396 182.739 81.3917 184.019 81.3875 185.3C80.9667 185.306 80.546 185.311 80.1252 185.313C79.8915 185.315 79.6577 185.319 79.4155 185.321C78.8375 185.3 78.8375 185.3 78.625 185.088C78.5676 184.314 78.5294 183.543 78.4954 182.767C78.5336 181.949 78.5336 181.949 78.2 181.263C77.8982 181.243 77.5965 181.239 77.2969 181.241C77.1332 181.241 76.9696 181.243 76.8017 181.243C76.5914 181.246 76.3831 181.248 76.1685 181.25C75.5055 181.254 74.8446 181.258 74.1625 181.263C74.0924 182.595 74.0222 183.927 73.95 185.3C71.978 185.321 71.978 185.321 71.4 185.3C71.1875 185.088 71.1875 185.088 71.162 184.65C71.162 184.459 71.162 184.267 71.1641 184.068C71.1641 183.851 71.1641 183.634 71.1641 183.411C71.1641 183.175 71.1662 182.939 71.1662 182.697C71.1662 182.457 71.1684 182.215 71.1684 181.968C71.1684 181.197 71.1705 180.427 71.1747 179.656C71.1747 179.135 71.1769 178.613 71.1769 178.092C71.179 176.811 71.1832 175.531 71.1875 174.25Z" fill="#0B8BCA"/>
<path d="M132.74 125.51C132.9 125.51 133.057 125.51 133.221 125.51C133.554 125.51 133.89 125.512 134.224 125.517C134.738 125.521 135.25 125.521 135.762 125.519C136.087 125.521 136.412 125.521 136.737 125.523C136.969 125.523 136.969 125.523 137.205 125.523C138.289 125.538 138.289 125.538 138.763 126.012C138.801 126.607 138.811 127.181 138.805 127.773C138.803 127.948 138.803 128.122 138.803 128.3C138.801 128.857 138.794 129.414 138.788 129.971C138.786 130.347 138.786 130.725 138.784 131.101C138.78 132.026 138.771 132.95 138.763 133.874C137.851 133.881 136.941 133.885 136.03 133.887C135.72 133.887 135.411 133.889 135.101 133.891C134.655 133.893 134.209 133.896 133.76 133.896C133.493 133.898 133.225 133.898 132.949 133.9C130.86 133.834 130.86 133.834 130.475 133.449C130.447 132.922 130.435 132.4 130.433 131.87C130.43 131.713 130.43 131.554 130.428 131.39C130.426 131.054 130.424 130.719 130.424 130.383C130.422 129.869 130.416 129.352 130.409 128.838C130.407 128.513 130.407 128.186 130.405 127.861C130.403 127.705 130.401 127.552 130.396 127.393C130.401 126.804 130.418 126.335 130.696 125.81C131.353 125.459 132.016 125.502 132.74 125.51Z" fill="#0B8BCA"/>
<path d="M113.05 174.25C114.227 174.246 115.402 174.242 116.58 174.239C116.979 174.237 117.381 174.235 117.78 174.233C118.356 174.231 118.93 174.231 119.504 174.229C119.684 174.229 119.865 174.227 120.05 174.227C120.479 174.227 120.908 174.237 121.338 174.25C121.89 174.803 121.55 175.806 121.55 176.588C119.727 176.588 117.904 176.588 116.025 176.588C116.025 177.149 116.025 177.71 116.025 178.288C116.367 178.63 116.748 178.543 117.219 178.56C117.419 178.568 117.617 178.577 117.823 178.583C118.031 178.591 118.239 178.598 118.456 178.606C118.866 178.621 119.278 178.636 119.691 178.653C119.965 178.662 119.965 178.662 120.245 178.672C120.7 178.713 120.7 178.713 121.125 178.925C121.125 179.556 121.125 180.187 121.125 180.838C120.978 180.844 120.832 180.848 120.679 180.855C120.018 180.878 119.357 180.903 118.694 180.931C118.462 180.94 118.233 180.948 117.993 180.957C117.774 180.965 117.553 180.974 117.328 180.982C117.022 180.995 117.022 180.995 116.709 181.005C116.244 180.999 116.244 180.999 116.025 181.263C115.989 182.006 115.989 182.006 116.025 182.75C116.395 183.12 116.903 183.007 117.406 183.022C117.761 183.035 117.761 183.035 118.125 183.045C118.373 183.054 118.624 183.06 118.881 183.069C119.372 183.084 119.863 183.099 120.354 183.116C120.573 183.122 120.791 183.128 121.017 183.135C121.55 183.175 121.55 183.175 121.975 183.388C121.975 184.019 121.975 184.65 121.975 185.3C120.738 185.304 119.502 185.309 118.265 185.311C117.844 185.313 117.421 185.315 117 185.317C116.397 185.319 115.793 185.319 115.19 185.321C114.905 185.323 114.905 185.323 114.614 185.323C114.164 185.323 113.713 185.313 113.263 185.3C113.05 185.088 113.05 185.088 113.025 184.65C113.025 184.459 113.025 184.267 113.027 184.068C113.027 183.851 113.027 183.634 113.027 183.411C113.027 183.175 113.029 182.939 113.029 182.697C113.029 182.457 113.031 182.215 113.031 181.968C113.031 181.197 113.033 180.427 113.037 179.656C113.037 179.135 113.039 178.613 113.039 178.092C113.042 176.811 113.046 175.531 113.05 174.25Z" fill="#0C8BCA"/>
<path d="M143.759 125.528C143.997 125.531 143.997 125.531 144.241 125.531C144.405 125.531 144.568 125.531 144.736 125.531C145.083 125.531 145.429 125.531 145.773 125.533C146.304 125.535 146.834 125.533 147.365 125.528C147.701 125.531 148.036 125.531 148.372 125.531C148.531 125.531 148.691 125.528 148.854 125.528C149.976 125.539 149.976 125.539 150.45 126.013C150.486 126.606 150.499 127.18 150.491 127.775C150.491 127.949 150.491 128.121 150.491 128.302C150.486 128.858 150.482 129.413 150.476 129.97C150.474 130.348 150.472 130.724 150.472 131.1C150.465 132.025 150.459 132.951 150.45 133.875C148.508 133.886 146.574 133.869 144.632 133.782C144.415 133.773 144.199 133.765 143.975 133.756C143.769 133.748 143.565 133.739 143.353 133.729C143.17 133.722 142.985 133.714 142.798 133.705C142.375 133.663 142.375 133.663 142.163 133.45C142.139 132.904 142.127 132.365 142.127 131.816C142.127 131.572 142.127 131.572 142.125 131.321C142.125 130.975 142.122 130.626 142.122 130.28C142.122 129.747 142.118 129.215 142.114 128.684C142.114 128.346 142.114 128.01 142.114 127.673C142.112 127.513 142.11 127.354 142.11 127.19C142.116 125.798 142.367 125.541 143.759 125.528Z" fill="#0B8BCA"/>
<path d="M192.525 175.1C192.814 175.504 192.814 175.504 192.95 175.95C192.75 176.513 192.429 176.934 192.1 177.438C191.951 177.395 191.802 177.35 191.649 177.306C189.448 176.594 189.448 176.594 187.212 176.8C187.238 177.206 187.238 177.206 187.425 177.65C188.364 178.324 189.42 178.604 190.519 178.91C191.707 179.274 192.162 179.813 192.786 180.846C193.16 181.8 193.092 182.839 192.697 183.772C192.038 184.567 191.426 185.119 190.4 185.3C187.916 185.459 185.634 185.438 183.6 183.813C183.812 183.007 183.985 182.385 184.45 181.688C185.236 181.855 185.869 182.176 186.575 182.55C187.499 182.984 188.322 182.982 189.337 182.963C189.478 182.682 189.618 182.402 189.762 182.113C189.036 181.237 188.271 180.971 187.225 180.625C186.154 180.268 185.281 179.945 184.45 179.138C184.08 178.026 184.031 176.855 184.543 175.778C185.213 174.745 186.373 174.409 187.516 174.12C189.182 173.87 191.122 174.11 192.525 175.1Z" fill="#0B8BCA"/>
<path d="M165.325 174.25C166.237 174.25 167.148 174.25 168.088 174.25C168.916 176.345 169.724 178.445 170.453 180.578C170.659 181.294 170.659 181.294 171.063 181.9C171.139 181.683 171.216 181.467 171.294 181.243C171.575 180.44 171.857 179.639 172.14 178.836C172.263 178.489 172.384 178.141 172.508 177.795C172.682 177.295 172.858 176.796 173.035 176.296C173.088 176.141 173.143 175.986 173.2 175.825C173.589 174.724 173.589 174.724 173.825 174.25C174.205 174.244 174.586 174.239 174.968 174.237C175.179 174.235 175.391 174.231 175.61 174.229C176.163 174.25 176.163 174.25 176.588 174.463C176.441 175.351 176.16 176.137 175.833 176.972C175.78 177.11 175.727 177.248 175.672 177.391C175.5 177.833 175.325 178.273 175.153 178.713C174.983 179.146 174.815 179.577 174.647 180.011C174.535 180.296 174.424 180.58 174.312 180.865C174.044 181.549 173.778 182.236 173.519 182.926C173.381 183.298 173.381 183.298 173.236 183.681C173.156 183.9 173.075 184.121 172.99 184.348C172.763 184.875 172.763 184.875 172.338 185.3C171.721 185.387 171.721 185.387 170.982 185.406C170.74 185.417 170.497 185.428 170.247 185.44C169.575 185.3 169.575 185.3 169.146 184.748C168.723 184.021 168.413 183.32 168.113 182.533C168.034 182.325 168.034 182.325 167.952 182.113C167.784 181.671 167.616 181.226 167.45 180.784C167.284 180.347 167.116 179.907 166.949 179.469C166.84 179.186 166.734 178.902 166.626 178.617C166.262 177.656 165.878 176.707 165.465 175.763C165.325 175.313 165.325 175.313 165.325 174.25Z" fill="#0B8BCA"/>
<path d="M143.759 137.003C143.997 137.006 143.997 137.006 144.241 137.006C144.405 137.006 144.568 137.006 144.736 137.006C145.083 137.006 145.429 137.006 145.773 137.008C146.304 137.01 146.834 137.008 147.365 137.003C147.701 137.006 148.036 137.006 148.372 137.006C148.531 137.006 148.691 137.003 148.854 137.003C149.976 137.014 149.976 137.014 150.45 137.488C150.499 138.004 150.499 138.004 150.491 138.644C150.491 138.873 150.489 139.103 150.486 139.337C150.484 139.577 150.48 139.817 150.476 140.063C150.474 140.306 150.474 140.546 150.472 140.794C150.465 141.394 150.459 141.991 150.45 142.588C149.475 142.537 148.5 142.484 147.524 142.429C147.193 142.412 146.861 142.392 146.53 142.375C146.052 142.352 145.573 142.324 145.095 142.297C144.949 142.29 144.802 142.282 144.651 142.276C143.759 142.222 142.998 142.057 142.163 141.738C142.15 141.039 142.142 140.338 142.135 139.638C142.133 139.441 142.129 139.241 142.125 139.035C142.122 138.75 142.122 138.75 142.12 138.459C142.118 138.283 142.116 138.106 142.114 137.926C142.224 136.925 142.915 137.012 143.759 137.003Z" fill="#0B8BCA"/>
<path d="M132.071 137.003C132.309 137.006 132.309 137.006 132.554 137.006C132.717 137.006 132.881 137.006 133.049 137.006C133.395 137.006 133.741 137.006 134.086 137.008C134.617 137.01 135.146 137.008 135.677 137.003C136.013 137.006 136.349 137.006 136.685 137.006C136.844 137.006 137.003 137.003 137.167 137.003C138.289 137.014 138.289 137.014 138.763 137.488C138.812 137.926 138.812 137.926 138.803 138.459C138.803 138.648 138.801 138.839 138.799 139.035C138.797 139.235 138.793 139.434 138.788 139.638C138.786 139.84 138.786 140.04 138.784 140.248C138.778 140.743 138.771 141.241 138.763 141.738C137.719 141.687 136.676 141.634 135.631 141.579C135.276 141.562 134.921 141.542 134.566 141.525C134.056 141.502 133.546 141.474 133.036 141.447C132.798 141.436 132.798 141.436 132.556 141.426C131.769 141.381 131.147 141.317 130.475 140.888C130.463 140.329 130.454 139.772 130.448 139.213C130.446 139.056 130.441 138.897 130.437 138.733C130.435 138.319 130.454 137.902 130.475 137.488C131.011 136.952 131.342 137.01 132.071 137.003Z" fill="#0B8BCA"/>
<path d="M95.2 130.9C96.1159 130.894 97.0318 130.889 97.9498 130.887C98.2111 130.885 98.4725 130.883 98.7424 130.881C98.991 130.881 99.2396 130.881 99.4946 130.879C99.841 130.877 99.841 130.877 100.194 130.877C100.725 130.9 100.725 130.9 100.938 131.113C100.957 131.538 100.961 131.963 100.959 132.388C100.957 132.647 100.957 132.904 100.957 133.172C100.955 133.442 100.952 133.714 100.95 133.994C100.95 134.268 100.948 134.54 100.948 134.821C100.946 135.496 100.942 136.174 100.938 136.85C100.026 136.863 99.1143 136.869 98.2005 136.876C97.9413 136.88 97.682 136.884 97.4143 136.888C97.0424 136.89 97.0424 136.89 96.662 136.893C96.4325 136.895 96.2051 136.897 95.9671 136.899C95.4125 136.85 95.4125 136.85 94.9875 136.425C94.9365 135.915 94.9365 135.915 94.9386 135.282C94.9386 135.057 94.9386 134.829 94.9408 134.595C94.9429 134.357 94.945 134.119 94.9471 133.875C94.9471 133.637 94.9471 133.399 94.9471 133.155C94.9578 131.385 94.9578 131.385 95.2 130.9Z" fill="#0B8BCA"/>
<path d="M86.4875 130.9C87.4034 130.894 88.3192 130.889 89.2372 130.887C89.4986 130.885 89.76 130.883 90.0299 130.881C90.2785 130.881 90.5271 130.881 90.7821 130.879C91.1285 130.877 91.1285 130.877 91.4812 130.877C92.0125 130.9 92.0125 130.9 92.225 131.113C92.2441 131.538 92.2484 131.963 92.2462 132.388C92.2441 132.647 92.2441 132.904 92.2441 133.172C92.242 133.442 92.2399 133.714 92.2377 133.994C92.2377 134.268 92.2356 134.54 92.2356 134.821C92.2335 135.496 92.2292 136.174 92.225 136.85C90.4017 136.85 88.5785 136.85 86.7 136.85C86.411 136.274 86.4641 135.819 86.4662 135.176C86.4684 134.927 86.4684 134.678 86.4684 134.423C86.4705 134.164 86.4726 133.905 86.4747 133.637C86.4747 133.374 86.4769 133.112 86.4769 132.842C86.479 132.196 86.4832 131.548 86.4875 130.9Z" fill="#0B8BCA"/>
<path d="M90.7375 176.587C91.715 177.202 92.2781 177.831 92.65 178.925C92.7626 179.9 92.7754 180.746 92.3971 181.662C91.681 182.501 90.9776 183.111 89.8747 183.268C88.7187 183.139 87.992 182.656 87.125 181.9C86.479 180.98 86.3366 180.249 86.4875 179.137C86.8679 178.162 87.2907 177.42 88.1344 176.787C89.0311 176.528 89.8131 176.411 90.7375 176.587Z" fill="#FAFDFF"/>
<path d="M159.163 176.587C160.104 177.11 160.716 177.913 161.075 178.925C161.243 179.99 161.2 180.791 160.731 181.768C159.974 182.601 159.367 183.096 158.247 183.307C156.946 183.088 155.969 182.382 155.112 181.394C154.768 180.432 154.709 179.618 155.106 178.681C156.049 177.046 157.256 176.245 159.163 176.587Z" fill="#FAFDFF"/>
<path d="M207.612 176.587C208.554 177.11 209.157 177.916 209.525 178.925C209.665 179.832 209.638 180.574 209.272 181.422C209.145 181.579 209.019 181.738 208.887 181.9C208.739 182.093 208.59 182.287 208.437 182.484C207.738 183.03 207.298 183.192 206.425 183.245C205.23 183.081 204.329 182.28 203.562 181.394C203.216 180.425 203.144 179.605 203.579 178.672C204.616 176.968 205.575 176.337 207.612 176.587Z" fill="#FAFDFF"/>
<path d="M178.713 174.25C179.093 174.244 179.473 174.239 179.856 174.237C180.066 174.235 180.279 174.231 180.498 174.229C181.05 174.25 181.05 174.25 181.475 174.463C181.475 178.039 181.475 181.615 181.475 185.3C180.634 185.3 179.792 185.3 178.925 185.3C178.713 185.088 178.713 185.088 178.687 184.65C178.687 184.459 178.687 184.267 178.689 184.068C178.689 183.851 178.689 183.634 178.689 183.411C178.689 183.175 178.691 182.939 178.691 182.697C178.691 182.457 178.693 182.215 178.693 181.968C178.693 181.197 178.696 180.427 178.7 179.656C178.7 179.135 178.702 178.613 178.702 178.092C178.704 176.811 178.708 175.531 178.713 174.25Z" fill="#0B8BCA"/>
<path d="M195.288 174.25C195.708 174.244 196.129 174.239 196.55 174.237C196.784 174.235 197.017 174.231 197.26 174.229C197.838 174.25 197.838 174.25 198.05 174.463C198.069 174.803 198.076 175.143 198.073 175.483C198.073 175.699 198.073 175.916 198.073 176.139C198.073 176.375 198.071 176.611 198.071 176.853C198.071 177.093 198.069 177.336 198.069 177.582C198.069 178.353 198.067 179.123 198.063 179.894C198.063 180.415 198.061 180.937 198.061 181.458C198.059 182.739 198.054 184.019 198.05 185.3C197.67 185.311 197.289 185.319 196.907 185.326C196.696 185.332 196.484 185.336 196.265 185.343C195.713 185.3 195.713 185.3 195.288 184.875C195.237 184.42 195.237 184.42 195.239 183.851C195.239 183.638 195.239 183.426 195.239 183.207C195.241 182.977 195.243 182.746 195.245 182.51C195.247 182.274 195.247 182.038 195.247 181.796C195.249 181.044 195.256 180.289 195.262 179.537C195.264 179.027 195.264 178.517 195.266 178.007C195.271 176.753 195.279 175.502 195.288 174.25Z" fill="#0B8BCA"/>
<path d="M86.4875 139.188C87.4034 139.181 88.3192 139.177 89.2372 139.175C89.4986 139.173 89.76 139.171 90.0299 139.168C90.2785 139.168 90.5271 139.168 90.7821 139.166C91.1285 139.164 91.1285 139.164 91.4812 139.164C92.0125 139.188 92.0125 139.188 92.225 139.4C92.2399 139.865 92.242 140.331 92.2377 140.794C92.2356 141.049 92.2335 141.304 92.2335 141.565C92.2292 141.763 92.2271 141.961 92.225 142.163C91.6236 142.271 91.0201 142.377 90.4187 142.481C90.2509 142.511 90.083 142.543 89.9087 142.573C88.8229 142.76 87.8029 142.849 86.7 142.8C86.4875 142.588 86.4875 142.588 86.4662 141.823C86.4684 141.506 86.4705 141.191 86.4747 140.875C86.4747 140.713 86.4769 140.552 86.4769 140.386C86.479 139.987 86.4832 139.587 86.4875 139.188Z" fill="#0B8BCA"/>
<path d="M94.9875 139.188C95.9395 139.181 96.8915 139.177 97.8435 139.175C98.1155 139.173 98.3875 139.171 98.6659 139.168C99.0547 139.168 99.0547 139.168 99.45 139.166C99.688 139.166 99.9281 139.164 100.175 139.164C100.725 139.188 100.725 139.188 100.937 139.4C100.952 139.723 100.954 140.046 100.95 140.369C100.948 140.545 100.946 140.722 100.946 140.902C100.942 141.036 100.94 141.172 100.937 141.313C100.3 141.385 99.6625 141.455 99.025 141.525C98.7572 141.555 98.7572 141.555 98.4852 141.587C97.3824 141.706 96.3092 141.778 95.2 141.738C94.9875 141.525 94.9875 141.525 94.9662 140.994C94.9684 140.779 94.9726 140.565 94.9747 140.344C94.9769 140.129 94.979 139.912 94.979 139.691C94.9832 139.525 94.9854 139.36 94.9875 139.188Z" fill="#0B8BCA"/>
<path d="M146.28 176.548C146.836 176.801 146.836 176.801 147.261 177.438C147.334 177.895 147.334 177.895 147.342 178.394C147.349 178.558 147.355 178.722 147.361 178.892C147.261 179.351 147.261 179.351 146.913 179.725C146.278 180.058 145.825 180.065 145.111 180.054C144.888 180.054 144.663 180.052 144.431 180.052C143.861 179.988 143.861 179.988 143.436 179.563C143.396 178.87 143.396 178.87 143.411 178.048C143.415 177.776 143.419 177.504 143.422 177.223C143.428 177.013 143.432 176.803 143.436 176.588C144.318 176.148 145.355 176.325 146.28 176.548Z" fill="#FAFDFF"/>
<path d="M134.171 176.438C134.725 176.587 134.725 176.587 135.297 177.158C135.592 177.909 135.713 178.342 135.575 179.137C135.108 179.747 134.868 179.966 134.098 180.085C133.875 180.08 133.654 180.074 133.423 180.068C133.199 180.065 132.976 180.061 132.745 180.059C132.175 179.987 132.175 179.987 131.75 179.562C131.686 178.986 131.686 178.986 131.684 178.302C131.68 178.074 131.676 177.849 131.674 177.617C131.75 177.012 131.75 177.012 132.001 176.614C132.7 176.181 133.382 176.342 134.171 176.438Z" fill="#FAFDFF"/>
<path d="M173.612 155.125C172.269 156.02 170.266 155.539 168.725 155.337C168.725 155.267 168.725 155.197 168.725 155.125C170.348 154.836 171.995 154.757 173.612 155.125Z" fill="#39AEF0"/>
</g>
<defs>
<clipPath id="clip0_3_116">
<rect width="272" height="272" fill="white"/>
</clipPath>
</defs>
</svg>
