<svg width="16" height="16" viewBox="0 0 16 16" fill="none" xmlns="http://www.w3.org/2000/svg">
<path d="M8 7.6875C9.20812 7.6875 10.1875 6.70812 10.1875 5.5C10.1875 4.29188 9.20812 3.3125 8 3.3125C6.79188 3.3125 5.8125 4.29188 5.8125 5.5C5.8125 6.70812 6.79188 7.6875 8 7.6875Z" stroke="#686868" stroke-linecap="round"/>
<path d="M3.53199 11.0925C3.93136 9.62687 5.44761 8.9375 6.96636 8.9375H9.03511C10.5539 8.9375 12.0701 9.62687 12.4701 11.0925C12.5572 11.4106 12.6189 11.7352 12.6545 12.0631C12.692 12.4069 12.4082 12.6875 12.0632 12.6875H3.93824C3.59324 12.6875 3.31011 12.4063 3.34699 12.0638C3.38255 11.7356 3.44483 11.4108 3.53199 11.0925Z" stroke="#686868" stroke-linecap="round"/>
</svg>
